<svg width="69" height="68" fill="none" xmlns="http://www.w3.org/2000/svg"><path d="M68 15 41 0h-1L30 6l-16 9-1 1v17l-7 5c-6 5-7 13-4 20a1 1 0 1 0 3-1 15 15 0 1 1 7 7 1 1 0 1 0-1 2 18 18 0 0 0 23-9l6 4a1 1 0 0 0 1 0l27-15V36a1 1 0 1 0-2 0v8L42 57V31l8-4v7a1 1 0 0 0 2 1l5-3 1-1v-9l8-4v7a1 1 0 1 0 2 0V15ZM41 3l23 13-7 4L33 7l8-4Zm0 26L17 16l8-4 23 13-7 4Zm10-6L28 10l2-1 24 13-3 1ZM31 38a17 17 0 0 0-15-5V18l23 13v26l-4-2a18 18 0 0 0-4-17Zm24-8-3 1v-6l3-1v6Z" fill="#70908B"/><path d="M67 29a1 1 0 0 0-1 1 1 1 0 0 0 1 2 1 1 0 0 0 1-2 1 1 0 0 0-1-1ZM14 52a1 1 0 0 0 1-3l-1-1h8a3 3 0 0 1 0 7h-5a1 1 0 1 0 0 3h5a6 6 0 0 0 0-12h-8l1-1a1 1 0 0 0-2-2l-3 3v2l3 3 1 1ZM7 63H6a1 1 0 1 1 1 0Z" fill="#70908B"/></svg>