<svg width="69" height="68" fill="none" xmlns="http://www.w3.org/2000/svg"><g clip-path="url(#a)" fill="#70908B"><path d="M23 52a1 1 0 0 0 0-1h-1a1 1 0 0 0-1 0 1 1 0 0 0 0 1 1 1 0 0 0 0 1 1 1 0 0 0 1 1 1 1 0 0 0 1-1 1 1 0 0 0 0-1Z"/><path d="M62 52c-2-2-5-3-8-2l-9 2c-1-1-2-3-4-3l-10-4c-1-1-4-4-9-4-3 0-6 3-8 5H2l-1 1v17l1 2h8l1-2v-1h4l1-1v-1l5 2a80 80 0 0 0 8 4l4 1 5-1 20-7c2-1 5-4 4-8ZM8 63H3V49h5v14Zm5-3h-2V49h2v11Zm44-3-20 8h-7l-8-4-6-2V48c1-2 4-4 6-4 5 0 7 3 7 3h1l10 4c2 1 3 2 2 4a3 3 0 0 1-3 1l-12-3a1 1 0 1 0-1 2l12 4a5 5 0 0 0 7-4l10-3 4 1c1 3-1 4-2 4ZM48 17a1 1 0 0 0-1 0 1 1 0 0 0-1 0 1 1 0 0 0 0 2 1 1 0 0 0 1 0 1 1 0 0 0 1 0 1 1 0 0 0 0-1 1 1 0 0 0 0-1Z"/><path d="M67 5h-8l-1 1v1h-4l-1 1v1l-5-2a80 80 0 0 0-8-4c-1-1-5-2-9 0l-5 2-4-5h-2L5 15v2l25 25h2l13-13h2c3 0 6-3 8-5h12l2-1V6l-2-1ZM21 3l3 3a6 6 0 0 1-6 0l3-3ZM11 19l-3-3 3-3a6 6 0 0 1 0 6Zm20 21-3-4h6l-3 4Zm5-5c-3-3-7-3-10 0L13 21a8 8 0 0 0 0-10l3-3a8 8 0 0 0 10 0l2 3a5 5 0 0 0-4 3 8 8 0 1 0 9 9l5 2c-1 2 0 5 1 7l-3 3Zm-8-13h3l-2 3a5 5 0 1 1-5-8c0 2 2 4 4 5Zm13 8-1-3 2 1-1 2Zm12-8c-1 2-4 4-6 4h-2c-3 0-4-2-5-3h-1l-10-4c-2-1-3-2-2-3a3 3 0 0 1 3-2l12 3a1 1 0 1 0 1-2l-10-3-5-5 4-2h7l8 4 6 2v11Zm5-1h-2V10h2v11Zm8 0h-5V7h5v14Z"/></g><defs><clipPath id="a"><path fill="#fff" d="M1 0h68v68H1z"/></clipPath></defs></svg>