<svg width="112" height="19" viewBox="0 0 112 19" fill="none" xmlns="http://www.w3.org/2000/svg">
<path d="M17.0311 6.89747L11.755 6.0945L9.39644 1.08736C9.33202 0.950268 9.22604 0.839289 9.09512 0.771831C8.76679 0.602097 8.36781 0.743542 8.20364 1.08736L5.84507 6.0945L0.568934 6.89747C0.423472 6.91923 0.290477 6.99104 0.188653 7.09985C0.0655539 7.23234 -0.00227942 7.41059 5.84883e-05 7.59543C0.00239639 7.78027 0.0747143 7.95657 0.201121 8.08561L4.01848 11.9829L3.11661 17.4862C3.09546 17.6143 3.10899 17.7459 3.15566 17.8663C3.20233 17.9867 3.28028 18.0909 3.38066 18.1673C3.48104 18.2436 3.59985 18.289 3.7236 18.2982C3.84735 18.3075 3.9711 18.2802 4.08082 18.2196L8.80004 15.6213L13.5193 18.2196C13.6481 18.2914 13.7977 18.3153 13.9411 18.2892C14.3027 18.2239 14.5458 17.8649 14.4835 17.4862L13.5816 11.9829L17.399 8.08561C17.5029 7.97898 17.5714 7.83971 17.5922 7.68738C17.6483 7.30657 17.3948 6.95405 17.0311 6.89747Z" fill="#FFC107"/>
<path d="M41.0311 6.8975L35.755 6.09453L33.3964 1.08739C33.332 0.950299 33.226 0.839319 33.0951 0.771861C32.7668 0.602128 32.3678 0.743572 32.2036 1.08739L29.8451 6.09453L24.5689 6.8975C24.4235 6.91926 24.2905 6.99107 24.1887 7.09988C24.0656 7.23237 23.9977 7.41062 24.0001 7.59546C24.0024 7.7803 24.0747 7.9566 24.2011 8.08564L28.0185 11.983L27.1166 17.4863C27.0955 17.6143 27.109 17.7459 27.1557 17.8663C27.2023 17.9867 27.2803 18.091 27.3807 18.1673C27.481 18.2437 27.5998 18.289 27.7236 18.2983C27.8474 18.3075 27.9711 18.2803 28.0808 18.2196L32.8 15.6214L37.5193 18.2196C37.6481 18.2914 37.7977 18.3153 37.9411 18.2892C38.3027 18.224 38.5458 17.8649 38.4835 17.4863L37.5816 11.983L41.399 8.08564C41.5029 7.97901 41.5714 7.83974 41.5922 7.68742C41.6483 7.3066 41.3948 6.95408 41.0311 6.8975Z" fill="#FFC107"/>
<path d="M63.431 6.8975L58.1549 6.09453L55.7963 1.08739C55.7319 0.950299 55.6259 0.839319 55.495 0.771861C55.1667 0.602128 54.7677 0.743572 54.6035 1.08739L52.245 6.09453L46.9688 6.8975C46.8234 6.91926 46.6904 6.99107 46.5886 7.09988C46.4655 7.23237 46.3976 7.41062 46.4 7.59546C46.4023 7.7803 46.4746 7.9566 46.601 8.08564L50.4184 11.983L49.5165 17.4863C49.4954 17.6143 49.5089 17.7459 49.5556 17.8663C49.6022 17.9867 49.6802 18.091 49.7806 18.1673C49.8809 18.2437 49.9998 18.289 50.1235 18.2983C50.2473 18.3075 50.371 18.2803 50.4807 18.2196L55.1999 15.6214L59.9192 18.2196C60.048 18.2914 60.1976 18.3153 60.341 18.2892C60.7026 18.224 60.9457 17.8649 60.8834 17.4863L59.9815 11.983L63.7989 8.08564C63.9028 7.97901 63.9713 7.83974 63.9921 7.68742C64.0482 7.3066 63.7947 6.95408 63.431 6.8975Z" fill="#FFC107"/>
<path d="M87.431 6.8975L82.1549 6.09453L79.7963 1.08739C79.7319 0.950299 79.6259 0.839319 79.495 0.771861C79.1667 0.602128 78.7677 0.743572 78.6035 1.08739L76.245 6.09453L70.9688 6.8975C70.8234 6.91926 70.6904 6.99107 70.5886 7.09988C70.4655 7.23237 70.3976 7.41062 70.4 7.59546C70.4023 7.7803 70.4746 7.9566 70.601 8.08564L74.4184 11.983L73.5165 17.4863C73.4954 17.6143 73.5089 17.7459 73.5556 17.8663C73.6022 17.9867 73.6802 18.091 73.7806 18.1673C73.8809 18.2437 73.9998 18.289 74.1235 18.2983C74.2473 18.3075 74.371 18.2803 74.4807 18.2196L79.1999 15.6214L83.9192 18.2196C84.048 18.2914 84.1976 18.3153 84.341 18.2892C84.7026 18.224 84.9457 17.8649 84.8834 17.4863L83.9815 11.983L87.7989 8.08564C87.9028 7.97901 87.9713 7.83974 87.9921 7.68742C88.0482 7.3066 87.7947 6.95408 87.431 6.8975Z" fill="#FFC107"/>
<path d="M111.431 6.8975L106.155 6.09453L103.796 1.08739C103.732 0.950299 103.626 0.839319 103.495 0.771861C103.167 0.602128 102.768 0.743572 102.604 1.08739L100.245 6.09453L94.9688 6.8975C94.8234 6.91926 94.6904 6.99107 94.5886 7.09988C94.4655 7.23237 94.3976 7.41062 94.4 7.59546C94.4023 7.7803 94.4746 7.9566 94.601 8.08564L98.4184 11.983L97.5165 17.4863C97.4954 17.6143 97.5089 17.7459 97.5556 17.8663C97.6022 17.9867 97.6802 18.091 97.7806 18.1673C97.8809 18.2437 97.9998 18.289 98.1235 18.2983C98.2473 18.3075 98.371 18.2803 98.4807 18.2196L103.2 15.6214L107.919 18.2196C108.048 18.2914 108.198 18.3153 108.341 18.2892C108.703 18.224 108.946 17.8649 108.883 17.4863L107.982 11.983L111.799 8.08564C111.903 7.97901 111.971 7.83974 111.992 7.68742C112.048 7.3066 111.795 6.95408 111.431 6.8975Z" fill="#FFC107"/>
</svg>
